<?xml version="1.0" standalone="no"?>
<!DOCTYPE svg PUBLIC "-//W3C//DTD SVG 20010904//EN"
 "http://www.w3.org/TR/2001/REC-SVG-20010904/DTD/svg10.dtd">
<svg version="1.0" xmlns="http://www.w3.org/2000/svg"
 width="1280.000000pt" height="986.000000pt" viewBox="0 0 1280.000000 986.000000"
 preserveAspectRatio="xMidYMid meet">
<metadata>
Created by potrace 1.15, written by Peter Selinger 2001-2017
</metadata>
<g transform="translate(0.000000,986.000000) scale(0.100000,-0.100000)"
fill="#000000" stroke="none">
<path d="M4240 9838 l-45 -23 -3 -65 c-2 -35 4 -240 13 -454 8 -215 22 -555
30 -756 22 -541 34 -660 68 -660 5 0 15 -7 22 -16 10 -14 21 -15 89 -6 92 12
121 29 130 75 6 35 -7 465 -24 777 -5 96 -14 312 -20 480 -18 507 -26 631 -41
646 -8 7 -48 16 -94 19 -71 6 -85 4 -125 -17z"/>
<path d="M4582 9815 l-34 -28 4 -113 c3 -126 13 -146 77 -164 20 -6 173 -24
341 -40 408 -41 704 -87 1042 -164 94 -21 184 -36 223 -36 78 0 84 7 113 125
34 136 35 149 12 178 -17 21 -44 31 -173 62 -319 76 -482 107 -727 136 -47 5
-137 16 -200 25 -168 21 -294 32 -480 40 l-165 7 -33 -28z"/>
<path d="M3330 9780 c0 -5 5 -10 10 -10 6 0 10 5 10 10 0 6 -4 10 -10 10 -5 0
-10 -4 -10 -10z"/>
<path d="M6483 9515 c-29 -21 -44 -63 -101 -295 -263 -1059 -258 -1035 -223
-1067 27 -25 111 -53 158 -53 73 0 94 33 137 215 81 345 201 841 237 978 l41
158 -21 23 c-23 25 -120 56 -174 56 -18 0 -42 -7 -54 -15z"/>
<path d="M6829 9415 c-36 -19 -60 -80 -79 -202 -16 -99 -23 -94 220 -178 566
-197 1115 -460 1655 -795 194 -120 194 -120 237 -120 56 0 81 14 113 61 16 24
42 61 57 81 44 56 54 95 33 118 -53 58 -395 273 -680 427 -155 83 -452 229
-570 279 -55 23 -170 72 -255 109 -149 65 -454 176 -590 216 -76 22 -106 23
-141 4z"/>
<path d="M1863 8640 c-18 -11 -33 -28 -33 -37 0 -44 -177 -302 -295 -433 -28
-30 -66 -75 -85 -100 -87 -114 -378 -435 -433 -477 -127 -97 -128 -94 96 -246
100 -68 263 -181 362 -250 318 -224 365 -236 500 -134 81 61 115 100 115 129
0 36 -18 43 -141 57 -155 18 -196 34 -379 150 -58 37 -113 70 -122 74 -36 13
-18 66 58 172 54 76 164 205 184 218 12 7 34 -2 85 -33 206 -126 371 -185 496
-178 83 4 108 22 93 65 -10 29 -11 30 -334 238 -93 61 -170 113 -170 116 0 25
242 289 266 289 23 0 207 -136 262 -194 53 -56 82 -108 82 -145 0 -11 11 -28
24 -36 47 -31 151 20 182 90 8 16 23 41 34 55 11 14 23 39 26 57 6 29 2 34
-52 77 -33 25 -117 85 -189 133 -197 131 -345 231 -445 301 -100 69 -132 76
-187 42z"/>
<path d="M6797 8583 c-4 -3 -7 -11 -7 -17 0 -6 5 -5 12 2 6 6 9 14 7 17 -3 3
-9 2 -12 -2z"/>
<path d="M9155 8249 c-11 -6 -41 -38 -66 -72 -74 -99 -634 -937 -663 -992 -41
-78 -37 -89 46 -131 92 -46 137 -44 185 11 48 56 684 1015 701 1057 14 35 14
40 -4 59 -43 49 -96 79 -138 78 -23 0 -50 -5 -61 -10z"/>
<path d="M6665 8127 c-4 -10 -5 -21 -1 -24 10 -10 18 4 13 24 -4 17 -4 17 -12
0z"/>
<path d="M9425 8019 c-42 -38 -123 -152 -138 -191 -10 -28 32 -69 265 -255
306 -244 748 -670 974 -938 37 -44 101 -118 143 -165 42 -47 116 -133 165
-192 89 -108 101 -118 140 -118 66 0 256 137 256 185 0 13 -20 50 -45 82 -25
32 -61 81 -79 108 -19 28 -82 104 -141 170 -59 66 -148 167 -198 225 -106 123
-537 555 -682 684 -138 122 -470 387 -526 420 -25 14 -56 26 -68 26 -12 0 -42
-19 -66 -41z"/>
<path d="M4348 7455 c-2 -3 -3 -18 0 -35 4 -25 9 -30 33 -30 26 0 29 3 29 35
0 32 -3 35 -28 35 -16 0 -31 -2 -34 -5z"/>
<path d="M4393 6993 c-18 -3 -23 -11 -23 -34 0 -26 3 -29 33 -29 32 0 33 1 29
35 -2 19 -7 34 -11 34 -3 -1 -16 -4 -28 -6z"/>
<path d="M4390 6500 c0 -28 3 -30 35 -30 32 0 35 2 35 30 0 28 -3 30 -35 30
-32 0 -35 -2 -35 -30z"/>
<path d="M11305 6195 c-5 -2 -22 -6 -37 -9 -14 -3 -64 -34 -110 -68 -45 -34
-256 -185 -468 -335 -396 -281 -510 -371 -510 -402 0 -23 52 -89 88 -113 15
-10 42 -18 60 -18 60 0 61 0 692 465 113 83 242 177 286 209 45 31 96 72 114
91 l32 33 -27 51 c-39 71 -85 107 -120 96z"/>
<path d="M4410 6041 c0 -36 10 -44 45 -35 19 5 25 12 25 35 0 26 -3 29 -35 29
-32 0 -35 -2 -35 -29z"/>
<path d="M11420 5868 c-97 -60 -160 -119 -160 -148 0 -22 34 -95 55 -120 7 -8
24 -34 37 -57 13 -23 37 -61 54 -85 32 -44 206 -341 256 -437 16 -29 41 -72
57 -95 15 -22 32 -52 36 -66 4 -14 29 -68 55 -120 66 -132 195 -417 210 -465
7 -22 31 -78 53 -125 21 -47 48 -112 59 -145 25 -74 71 -167 92 -184 35 -29
261 22 312 70 34 32 31 60 -22 196 -67 176 -172 431 -199 488 -13 28 -61 131
-106 230 -45 99 -90 192 -100 206 -32 45 -159 263 -159 272 0 12 -108 195
-130 222 -9 11 -41 61 -70 110 -120 203 -198 305 -233 305 -7 0 -50 -24 -97
-52z"/>
<path d="M4430 5598 c1 -40 13 -58 41 -58 26 0 29 3 29 35 0 33 -2 35 -35 35
-21 0 -35 -5 -35 -12z"/>
<path d="M4460 5115 c0 -32 2 -35 30 -35 28 0 30 3 30 35 0 32 -2 35 -30 35
-28 0 -30 -3 -30 -35z"/>
<path d="M4480 4655 c0 -33 2 -35 35 -35 36 0 40 6 29 48 -5 16 -14 22 -35 22
-26 0 -29 -3 -29 -35z"/>
<path d="M1335 4521 c-60 -27 -100 -78 -336 -428 -191 -283 -306 -451 -664
-963 l-102 -145 -67 -5 c-64 -5 -70 -7 -101 -43 -43 -50 -68 -103 -58 -121 12
-22 117 -104 253 -198 66 -45 193 -134 283 -195 285 -198 562 -382 591 -393
30 -11 95 -13 121 -4 25 10 76 92 77 125 1 20 -8 39 -26 58 -35 36 -45 16 148
296 83 121 169 247 190 280 64 97 207 300 215 303 12 4 41 -55 41 -85 0 -62
-106 -241 -279 -473 -100 -133 -134 -205 -135 -283 -2 -106 66 -203 174 -251
55 -25 71 -28 143 -24 97 5 153 28 229 97 64 57 112 131 190 291 68 140 177
337 250 452 49 76 49 77 106 88 81 16 88 18 106 39 53 58 59 354 12 535 -27
106 -90 245 -132 295 -36 44 -89 43 -140 -1 -53 -47 -58 -68 -31 -141 19 -53
22 -81 21 -187 -2 -154 -14 -216 -66 -328 -65 -140 -459 -868 -491 -907 -35
-43 -67 -46 -96 -9 -44 55 -33 80 139 324 135 191 197 290 236 375 23 51 26
66 22 139 -6 100 -22 134 -101 208 l-61 58 52 72 c127 177 270 398 287 441 40
106 8 141 -420 442 -402 283 -405 285 -480 285 -36 0 -76 -8 -100 -19z"/>
<path d="M4528 4222 c-23 -3 -28 -8 -28 -33 0 -27 3 -29 35 -29 32 0 35 2 35
29 0 34 -5 38 -42 33z"/>
<path d="M4520 3730 c0 -28 3 -30 35 -30 32 0 35 2 35 30 0 28 -3 30 -35 30
-32 0 -35 -2 -35 -30z"/>
<path d="M12460 3729 c-125 -32 -1433 -441 -1587 -495 -39 -14 -83 -36 -96
-48 -20 -18 -249 -77 -1253 -319 -4732 -1143 -4994 -1206 -5042 -1231 -59 -30
-120 -89 -129 -124 -5 -22 64 -291 90 -350 26 -57 146 -84 262 -59 39 8 412
108 830 222 418 113 992 269 1275 346 972 265 1717 467 2884 785 832 227 1171
315 1174 306 7 -22 62 -43 110 -44 26 0 108 16 182 36 74 19 410 99 745 176
713 164 752 174 828 207 85 38 86 54 17 260 -22 65 -40 129 -40 143 0 25 -55
174 -73 198 -14 18 -90 14 -177 -9z"/>
<path d="M4550 3264 c0 -29 3 -35 16 -30 9 3 22 6 30 6 9 0 14 11 14 30 0 27
-3 30 -30 30 -28 0 -30 -3 -30 -36z"/>
<path d="M4570 2805 c0 -32 3 -35 28 -35 37 0 39 4 34 40 -4 25 -9 30 -33 30
-26 0 -29 -3 -29 -35z"/>
<path d="M10795 2709 c-86 -21 -127 -31 -190 -48 -22 -6 -97 -24 -166 -41
-125 -30 -173 -37 -134 -20 25 11 -1 11 -35 0 -21 -7 -22 -8 -5 -10 18 -1 17
-2 -4 -11 -14 -5 -39 -7 -55 -4 -23 5 -27 4 -16 -4 9 -6 10 -11 3 -11 -6 0
-20 -3 -30 -6 -15 -5 -16 -4 -3 6 12 9 9 10 -15 5 -16 -4 -31 -10 -33 -15 -2
-4 -13 -6 -25 -3 -18 4 -19 3 -7 -7 12 -9 11 -10 -7 -5 -26 7 -75 -4 -67 -16
3 -5 -2 -6 -10 -3 -13 5 -67 -8 -336 -82 -47 -13 -319 -87 -605 -164 -286 -78
-799 -217 -1140 -310 -341 -93 -984 -268 -1430 -389 -445 -121 -1026 -279
-1290 -351 -316 -87 -504 -134 -551 -137 -89 -7 -162 15 -199 58 -14 17 -25
26 -25 21 0 -5 -10 -14 -23 -21 -41 -22 -47 -43 -31 -102 42 -151 57 -190 74
-199 31 -17 111 -11 210 16 89 24 120 32 253 68 28 8 79 22 112 31 33 9 85 23
115 32 30 8 71 19 90 23 34 8 77 20 150 41 19 6 51 14 70 19 19 5 51 13 70 19
68 19 115 32 150 41 35 9 82 22 150 41 19 6 51 14 70 19 19 5 51 13 70 19 73
21 116 33 150 41 19 4 61 15 93 24 31 9 82 23 112 31 30 8 80 22 110 30 30 8
80 22 110 30 30 8 80 22 110 30 30 8 80 22 110 30 30 8 80 22 110 30 30 8 80
22 110 30 30 8 80 22 110 30 30 8 80 22 110 30 30 8 80 22 110 30 30 8 80 22
110 30 30 8 80 22 110 30 30 8 80 22 110 30 30 8 80 22 110 30 30 8 81 22 113
31 31 9 73 20 92 24 19 4 61 15 93 24 31 9 82 23 112 31 30 8 79 21 108 29 28
8 79 22 112 31 113 31 202 55 315 86 19 6 51 15 70 20 19 6 51 14 70 19 19 4
61 15 93 24 56 16 99 28 222 61 33 9 110 29 170 45 104 27 142 37 283 76 31 8
91 25 132 35 41 11 91 25 110 30 19 6 51 14 70 19 19 5 51 13 70 19 68 19 115
32 150 41 19 5 51 13 70 19 68 19 115 32 150 41 19 5 52 13 73 19 20 6 54 16
75 22 20 6 53 14 72 19 19 4 61 15 93 24 31 9 83 23 115 32 181 50 186 52 234
89 18 15 27 33 30 63 3 41 3 42 -23 37 -23 -5 -76 3 -119 18 -8 3 -51 -4 -95
-14z m-6060 -1749 l0 -45 -45 0 c-44 0 -45 1 -48 33 -5 54 2 64 50 60 l43 -3
0 -45z"/>
<path d="M4650 960 l0 -40 40 0 40 0 0 40 0 40 -40 0 -40 0 0 -40z"/>
<path d="M10338 2613 c7 -3 16 -2 19 1 4 3 -2 6 -13 5 -11 0 -14 -3 -6 -6z"/>
<path d="M4590 2346 c0 -35 1 -36 36 -36 34 0 35 1 32 33 -3 28 -7 32 -35 35
-32 3 -33 2 -33 -32z"/>
<path d="M11474 1921 c-23 -14 -33 -29 -37 -58 -9 -54 -83 -172 -265 -423
-213 -293 -337 -446 -461 -569 -96 -96 -103 -106 -95 -130 10 -27 149 -139
239 -192 86 -50 174 -36 196 30 18 52 57 128 102 196 83 125 170 236 182 232
6 -3 59 -37 118 -75 136 -90 197 -114 309 -120 139 -7 198 14 198 72 0 26 -12
35 -255 189 -66 42 -142 96 -169 120 l-50 44 120 149 c72 90 126 149 136 148
23 -2 201 -137 270 -205 40 -39 60 -69 69 -100 16 -56 32 -69 88 -69 41 0 49
4 96 53 28 28 63 73 78 99 26 44 27 49 12 71 -21 33 -107 100 -350 274 -378
270 -399 283 -453 283 -28 0 -59 -8 -78 -19z"/>
<path d="M4617 1913 c-4 -3 -7 -19 -7 -35 0 -25 3 -28 35 -28 33 0 35 2 35 35
0 32 -3 35 -28 35 -16 0 -32 -3 -35 -7z"/>
<path d="M4017 1243 c-14 -3 -17 -11 -13 -26 3 -12 6 -25 6 -29 0 -9 32 -10
53 -2 11 4 13 13 8 32 -8 27 -21 34 -54 25z"/>
<path d="M3580 1130 c-21 -5 -24 -12 -22 -36 4 -37 5 -37 41 -29 27 6 30 10
25 33 -9 36 -15 40 -44 32z"/>
<path d="M4680 494 c0 -29 3 -35 16 -30 9 3 24 6 35 6 14 0 19 7 19 30 0 28
-3 30 -35 30 -34 0 -35 -2 -35 -36z"/>
<path d="M4700 49 c0 -17 5 -20 32 -17 22 2 34 9 36 21 3 14 -4 17 -32 17 -30
0 -36 -4 -36 -21z"/>
</g>
</svg>
